<svg id="Layer_2" data-name="Layer 2" xmlns="http://www.w3.org/2000/svg" viewBox="0 0 24 24"><defs><style>.cls-1{fill:#fff;}</style></defs><path class="cls-1" d="M20,4V20H4V4ZM4.79,19.18l.4,0H18.78c.37,0,.44-.13.44-.46q0-6.75,0-13.49c0-.4-.11-.5-.5-.5H5.26l-.47,0Z"/><path class="cls-1" d="M14,15.23l-.08,0c-1,.1-1,.1-1.4-.85-.26-.68-.26-.68-1-.68-.42,0-.85,0-1.28,0a.54.54,0,0,0-.36.25,5,5,0,0,0-.35.91c-.09.28-.23.42-.55.38s-.48,0-.79,0c.26-.66.49-1.28.74-1.89.5-1.28,1-2.55,1.51-3.84a.51.51,0,0,1,.6-.38c.31,0,.58,0,.74.37.69,1.83,1.43,3.64,2.15,5.46A1.77,1.77,0,0,1,14,15.23Zm-2.89-4.56-.78,2.11h1.55Z"/><path class="cls-1" d="M14.75,10.89h1v4.37h-1Z"/><path class="cls-1" d="M14.73,9.84V8.71h1.09V9.84Z"/></svg>