<svg id="Layer_2" data-name="Layer 2" xmlns="http://www.w3.org/2000/svg" viewBox="0 0 24 24"><defs><style>.cls-1{fill:#fff;}</style></defs><path class="cls-1" d="M20,4V19.93H4V4ZM4.81,4.81V19.12H19.15V4.81Z"/><path class="cls-1" d="M13,14.9l-.1,0c-1.06.07-1.09.08-1.44-.95a.72.72,0,0,0-.88-.59c-.44,0-.9,0-1.36,0a.64.64,0,0,0-.36.24,1.34,1.34,0,0,0-.16.39c-.38,1-.38,1-1.54.86l.91-2.28c.46-1.16.91-2.32,1.39-3.47a.48.48,0,0,1,.37-.27c.28,0,.68-.22.84.17C11.47,11,12.23,12.94,13,14.9Zm-2.92-4.54-.75,2.08h1.51Z"/><path class="cls-1" d="M17.52,13.07H14.65a.9.9,0,0,0,.52.91,3,3,0,0,0,1.07.18A6.44,6.44,0,0,0,17.31,14s0,0,0,.06c.09.78.06.85-.7.95a6.38,6.38,0,0,1-1.31,0,1.91,1.91,0,0,1-1.81-1.86,2.36,2.36,0,0,1,1.13-2.51,1.92,1.92,0,0,1,2.87,1.71C17.54,12.58,17.52,12.8,17.52,13.07Zm-1.19-.87a.77.77,0,0,0-.71-.92.85.85,0,0,0-.88.92Z"/></svg>