<svg id="Layer_2" data-name="Layer 2" xmlns="http://www.w3.org/2000/svg" viewBox="0 0 24 24"><defs><style>.cls-1{fill:#fff;}</style></defs><path class="cls-1" d="M12.05,9.36h4.29c.13,0,.13,0,.13.13v6.25a1,1,0,0,1-.86,1.06,2,2,0,0,1-.24,0h-.56c-.12,0-.12,0-.12.11V19a1,1,0,0,1-.9,1,1,1,0,0,1-1.07-.88c0-.06,0-.13,0-.19v-2c0-.11,0-.11-.12-.11H11.5c-.08,0-.11,0-.11.1,0,.68,0,1.36,0,2a1,1,0,0,1-.32.75.92.92,0,0,1-1.06.19.9.9,0,0,1-.6-.88c0-.7,0-1.39,0-2.09,0-.11,0-.11-.12-.11s-.48,0-.71,0a1.06,1.06,0,0,1-1-1V9.49c0-.13,0-.13.13-.13Z"/><path class="cls-1" d="M12.05,9H7.77c-.14,0-.14,0-.13-.15a3.85,3.85,0,0,1,1-2.49,4.5,4.5,0,0,1,1.12-.87c.06,0,.07-.06,0-.12L9.22,4.26s0,0,0-.06A.14.14,0,0,1,9.24,4a.13.13,0,0,1,.18,0,2.2,2.2,0,0,1,.15.26c.18.31.35.63.52.94,0,.07.07.08.14,0a4.64,4.64,0,0,1,2-.36,4.44,4.44,0,0,1,1.6.36c.08,0,.11,0,.15-.06.2-.36.4-.73.61-1.09a.41.41,0,0,1,0-.09A.14.14,0,0,1,14.87,4a.14.14,0,0,1,.05.19l-.19.35c-.16.27-.31.54-.46.81,0,.1,0,.1,0,.15a4.11,4.11,0,0,1,2,2.33,3.8,3.8,0,0,1,.18,1.06c0,.11,0,.11-.1.11ZM9.65,7A.37.37,0,0,0,10,7.4.38.38,0,0,0,10.38,7a.37.37,0,1,0-.73,0Zm4.45-.37a.37.37,0,1,0,.36.38A.38.38,0,0,0,14.1,6.66Z"/><path class="cls-1" d="M5.29,12.24V10.18a1,1,0,0,1,2-.08,2.72,2.72,0,0,1,0,.28V14.2a1.55,1.55,0,0,1,0,.37,1,1,0,0,1-1.06.72,1,1,0,0,1-.88-1Z"/><path class="cls-1" d="M18.82,12.24v2.07a1,1,0,0,1-2,.07c0-.1,0-.2,0-.3v-3.8a1.18,1.18,0,0,1,.1-.52,1,1,0,0,1,1.87.26,1.48,1.48,0,0,1,0,.21v2Z"/></svg>