<svg id="Layer_2" data-name="Layer 2" xmlns="http://www.w3.org/2000/svg" viewBox="0 0 24 24"><defs><style>.cls-1{fill:#fff;}</style></defs><path class="cls-1" d="M18.22,9.18,18,9.39a6.25,6.25,0,0,0-.86.92,3.38,3.38,0,0,0-.59,1.5,3.7,3.7,0,0,0,.77,2.87,2.91,2.91,0,0,0,.88.8,4.23,4.23,0,0,0,.48.23l-.12.37a10.08,10.08,0,0,1-1,2,6.38,6.38,0,0,1-.91,1.16,3,3,0,0,1-.86.6,1.67,1.67,0,0,1-1,.14,6.33,6.33,0,0,1-1.13-.32,5.42,5.42,0,0,0-1-.25,2.76,2.76,0,0,0-1.07.07,6.61,6.61,0,0,0-.85.3,3.77,3.77,0,0,1-.83.23,1.78,1.78,0,0,1-1.08-.18A3.28,3.28,0,0,1,8,19.28a7.43,7.43,0,0,1-1.08-1.41,12.08,12.08,0,0,1-1.16-2.5,10,10,0,0,1-.36-1.53,7.87,7.87,0,0,1-.07-1.61,7,7,0,0,1,.26-1.58,4.67,4.67,0,0,1,1.2-2,3.23,3.23,0,0,1,1.65-.89,3.48,3.48,0,0,1,.91-.05A7.75,7.75,0,0,1,10.94,8c.31.09.63.16,1,.23a1.47,1.47,0,0,0,.69,0,10.51,10.51,0,0,0,1.09-.33,5.31,5.31,0,0,1,1-.24,3.49,3.49,0,0,1,2.56.62A5,5,0,0,1,18.22,9.18Z"/><path class="cls-1" d="M11.88,7.86a2.62,2.62,0,0,1,0-.28,4.37,4.37,0,0,1,.19-1.07,3.69,3.69,0,0,1,.71-1.34,3,3,0,0,1,.93-.74A4.86,4.86,0,0,1,15,4h0a1,1,0,0,1,.06.34,3.34,3.34,0,0,1-.23,1.25,3.9,3.9,0,0,1-1.57,2,1.92,1.92,0,0,1-.81.29l-.53.06Z"/></svg>