<svg id="Layer_2" data-name="Layer 2" xmlns="http://www.w3.org/2000/svg" viewBox="0 0 24 24"><defs><style>.cls-1{fill:#fff;}</style></defs><path class="cls-1" d="M12.31,12.65A1.86,1.86,0,0,1,13,11.32a2.24,2.24,0,0,1,1.47-.53,2.28,2.28,0,0,1,1.47.53,1.88,1.88,0,0,1,.68,1.33,1.85,1.85,0,0,1-.57,1.43,2.3,2.3,0,0,1-3.16,0,1.81,1.81,0,0,1-.57-1.43Z"/><path class="cls-1" d="M8.94,13.78a3.77,3.77,0,0,0,.17.93,5,5,0,0,0,1.05,1.83A5.55,5.55,0,0,0,12,17.87a6,6,0,0,0,2.43.5,5.92,5.92,0,0,0,2.43-.51,5.4,5.4,0,0,0,1.85-1.34,4.91,4.91,0,0,0,1.06-1.83,5.21,5.21,0,0,0,.2-1,5,5,0,0,0,0-1,4.64,4.64,0,0,0-.67-1.84,5.14,5.14,0,0,0-1.23-1.36h0l-5-3.83h0a1.08,1.08,0,0,0-1.23,0,.56.56,0,0,0-.08.94h0l2.07,1.69H7.48A1.17,1.17,0,0,0,6.35,9c-.1.45.25.81.8.81h3.21L4.62,14.22l0,0a1.12,1.12,0,0,0-.37,1.53,1.16,1.16,0,0,0,1.63,0L9,13.21a3.89,3.89,0,0,0,0,.56Zm8,1.15a3.61,3.61,0,0,1-5,0,2.88,2.88,0,0,1-.85-2.28,2.93,2.93,0,0,1,.35-1.13,3.29,3.29,0,0,1,.76-.91,3.65,3.65,0,0,1,4.52,0,3,3,0,0,1,.76.91,2.62,2.62,0,0,1,.35,1.13,2.78,2.78,0,0,1-.16,1.21A2.93,2.93,0,0,1,17,14.94Z"/></svg>