<svg id="Layer_2" data-name="Layer 2" xmlns="http://www.w3.org/2000/svg" viewBox="0 0 24 24"><defs><style>.cls-1{fill:#fff;}</style></defs><path class="cls-1" d="M18.93,8h0a1.3,1.3,0,0,0-.44-.46L12.62,4.15a1.36,1.36,0,0,0-1.24,0L5.51,7.54a1.38,1.38,0,0,0-.62,1.07v6.78a1.26,1.26,0,0,0,.18.61,1.3,1.3,0,0,0,.44.46l5.87,3.39a1.36,1.36,0,0,0,1.24,0l5.87-3.39a1.3,1.3,0,0,0,.44-.46,1.26,1.26,0,0,0,.18-.61V8.61A1.23,1.23,0,0,0,18.93,8ZM12,16.74a4.74,4.74,0,1,1,4.1-7.11l-2.05,1.19a2.37,2.37,0,1,0,0,2.36l2.05,1.19A4.74,4.74,0,0,1,12,16.74Z"/></svg>