<svg id="Layer_2" data-name="Layer 2" xmlns="http://www.w3.org/2000/svg" viewBox="0 0 24 24"><defs><style>.cls-1{fill:#a2a2a2;}.cls-2{fill:gray;}.cls-3{fill:#696969;}.cls-4{fill:#8f8f8f;}</style></defs><path class="cls-1" d="M9.31,18.51l-3-1.65s-.08-.1-.12-.15a1.71,1.71,0,0,0,.2-.18l5.75-5.75.16-.17,1.32-1.32a.48.48,0,0,0,.1-.17A1.59,1.59,0,0,0,14,9l1.56-1.56c.13-.14.27-.27.48-.2s.24.24.27.42c.34,2.15.69,4.29,1,6.44.13.82.27,1.64.39,2.46a.82.82,0,0,1,0,.27.83.83,0,0,0-.27.07L14.9,18.31c-.78.43-1.56.86-2.35,1.28a1.11,1.11,0,0,1-1.14,0c-.43-.24-.86-.48-1.3-.71C9.85,18.74,9.58,18.63,9.31,18.51Z"/><path class="cls-2" d="M13.76,9.12a.48.48,0,0,1-.1.17l-1.32,1.32L10.88,8l-.22.31L9.38,10.73C9,11.5,8.55,12.27,8.15,13L6.81,15.6c-.16.29-.35.56-.53.84.1-.66.19-1.32.29-2,.29-1.87.59-3.75.88-5.62.23-1.5.47-3,.7-4.48,0-.18.09-.35.3-.39a.4.4,0,0,1,.44.27l1.83,3.39c0,.08.09.16.17.29.23-.45.43-.85.65-1.24.11-.2.16-.47.47-.47s.36.28.47.47C12.91,7.48,13.34,8.3,13.76,9.12Z"/><path class="cls-3" d="M6.28,16.44c.18-.28.37-.55.53-.84L8.15,13c.4-.77.82-1.54,1.23-2.31l1.28-2.47L10.88,8l1.46,2.66-.16.17L6.43,16.53a1.71,1.71,0,0,1-.2.18Z"/><path class="cls-4" d="M9.31,18.51c.27.12.54.23.8.37.44.23.87.47,1.3.71a1.11,1.11,0,0,0,1.14,0c.79-.42,1.57-.85,2.35-1.28l2.57-1.43a.83.83,0,0,1,.27-.07l-5.19,2.88a1.06,1.06,0,0,1-1.11,0Z"/></svg>