<svg id="Layer_2" data-name="Layer 2" xmlns="http://www.w3.org/2000/svg" viewBox="0 0 24 24"><defs><style>.cls-1{fill:#fff;}</style></defs><path class="cls-1" d="M9.29,14.57V12.71H6.12V12.1L9.17,7.74h1V12h1v.73h-1v1.86Zm0-2.59V9.71q0-.54,0-1.08h0c-.21.4-.37.7-.56,1L7.06,12v0Z"/><path class="cls-1" d="M11.66,15.3v-.45h.2l.23,0c.06,0,.1,0,.11-.05a.17.17,0,0,0,0-.15,1.8,1.8,0,0,0,0-.22l-.72-4.24h.58l.32,2.29.13,1.19h.05l.11-1.19L13,10.17h.58l-.73,4.48a1.41,1.41,0,0,1-.09.38.35.35,0,0,1-.16.21.67.67,0,0,1-.32.06Z"/><path class="cls-1" d="M14.08,14.57v-4.4h.61v.49a.8.8,0,0,1,.26-.4.84.84,0,0,1,.49-.14v.51l-.28,0a.68.68,0,0,0-.26.12.64.64,0,0,0-.21.22v3.57Z"/><path class="cls-1" d="M16.78,14.62a.85.85,0,0,1-.71-.29,1.57,1.57,0,0,1-.24-1V13h.58v.33a1.65,1.65,0,0,0,.08.57.27.27,0,0,0,.27.19A.32.32,0,0,0,17,14a.85.85,0,0,0,.08-.43,1.1,1.1,0,0,0,0-.31,1.05,1.05,0,0,0-.15-.3,1.33,1.33,0,0,0-.25-.3l-.31-.29a2.2,2.2,0,0,1-.42-.57,1.4,1.4,0,0,1-.15-.64,1.11,1.11,0,0,1,.25-.78.94.94,0,0,1,.7-.25.89.89,0,0,1,.5.13.79.79,0,0,1,.3.43,2.54,2.54,0,0,1,.1.81v.21h-.57v-.3a1.69,1.69,0,0,0-.07-.57.26.26,0,0,0-.25-.2.34.34,0,0,0-.27.11.58.58,0,0,0-.1.38.9.9,0,0,0,0,.28.93.93,0,0,0,.13.29,1.38,1.38,0,0,0,.23.27l.32.3a2,2,0,0,1,.46.61,1.52,1.52,0,0,1,.16.69,1.23,1.23,0,0,1-.23.78A.85.85,0,0,1,16.78,14.62Z"/></svg>