<svg id="Layer_2" data-name="Layer 2" xmlns="http://www.w3.org/2000/svg" viewBox="0 0 24 24"><defs><style>.cls-1{fill:#fff;}</style></defs><path class="cls-1" d="M18.61,10.68l-1-2.4.66-1.63-.85-.8-1.81.82-2.21-1-.61-1.58c-1.68-.59-1.63.84-2.06,1.7l-2.24.81L6.92,5.87,6,7l.61,1.31L5.53,10.73l-1.2.54L4.15,12.7l1.39.57,1.11,2.48L6,17.33l.9.9,1.74-.86,2.18,1L11.44,20h1.3c.78-1.82.78-1.82,2.93-2.58l1.8.73.78-.78c-.71-1.93-.71-1.93.51-4.13l1.09-.52V11.34Zm-4.41,6A5.32,5.32,0,0,1,7,13.42a5,5,0,0,1,3.44-6.2c2.79-.8,5.74.52,6.35,3a2.24,2.24,0,0,1-2.46-.49,3.44,3.44,0,0,0-4.47.05,3,3,0,0,0-.53,4,3.15,3.15,0,0,0,3,1.35,2.88,2.88,0,0,0,2.78-2.19,14.17,14.17,0,0,0-2.19.32c-.77.24-1.46.2-1.86-.49-.21-.35-.23-1.18,0-1.32A3.46,3.46,0,0,1,12.83,11c.95,0,1.9.12,2.84.18.49,0,1,.06,1.42.08C17.88,13.21,16.42,15.85,14.2,16.65Z"/></svg>