<svg id="Layer_2" data-name="Layer 2" xmlns="http://www.w3.org/2000/svg" viewBox="0 0 24 24"><defs><style>.cls-1{fill:#fff;}</style></defs><path class="cls-1" d="M19.7,11.29l-7-7a1,1,0,0,0-1.45,0L9.8,5.75l1.84,1.84a1.24,1.24,0,0,1,1.26.3,1.19,1.19,0,0,1,.29,1.26L15,10.93a1.19,1.19,0,0,1,1.26.29,1.22,1.22,0,1,1-2,.4L12.58,10v4.36a.9.9,0,0,1,.32.23,1.22,1.22,0,1,1-1.73,0,1.28,1.28,0,0,1,.4-.27V9.89a1.28,1.28,0,0,1-.4-.27,1.22,1.22,0,0,1-.26-1.34L9.09,6.47,4.3,11.26a1,1,0,0,0,0,1.45l7,7a1,1,0,0,0,1.45,0l7-6.95a1,1,0,0,0,0-1.46"/></svg>