<svg id="Layer_2" data-name="Layer 2" xmlns="http://www.w3.org/2000/svg" viewBox="0 0 24 24"><defs><style>.cls-1{fill:#fff;}</style></defs><path class="cls-1" d="M4,8.57C4,7.11,4,5.81,4,4.5,4,4,4.31,4,4.65,4h4c3.49,0,7,0,10.47,0,.67,0,.86.19.85.86q0,7.14,0,14.28c0,.65-.17.88-.84.86C17.57,20,16,20,14.44,20c-.19,0-.39,0-.71-.05l.62-.5a6.45,6.45,0,0,0-.14-10.8A8.39,8.39,0,0,0,5.09,8C4.77,8.14,4.46,8.32,4,8.57Z"/><path class="cls-1" d="M4,12.91c0-.73,0-1.26,0-1.78a1.08,1.08,0,0,1,.33-.64,6.53,6.53,0,0,1,6.57-1.61c4.12,1.27,4.53,6.1,2.91,8.42A4.26,4.26,0,0,1,9.79,19a4.17,4.17,0,0,1-3.9-2.61A2.69,2.69,0,0,1,7,12.89a7.23,7.23,0,0,1,2.19-.72A1.61,1.61,0,0,1,11,13.33a1.69,1.69,0,0,1-.83,1.93.88.88,0,0,1-1.44-.55A3.48,3.48,0,0,0,8.39,14a2.74,2.74,0,0,0-.73.55,1.7,1.7,0,0,0,.61,2.55,3,3,0,0,0,3.15.07,3.85,3.85,0,0,0,1.91-3.66,3.26,3.26,0,0,0-2.09-3,5.23,5.23,0,0,0-6.33,1.34C4.65,12.16,4.4,12.46,4,12.91Z"/><path class="cls-1" d="M6.37,20c-.68,0-1.31,0-1.95,0A.54.54,0,0,1,4,19.61c0-.58,0-1.16,0-1.79Z"/></svg>