<svg id="Layer_2" data-name="Layer 2" xmlns="http://www.w3.org/2000/svg" viewBox="0 0 24 24"><defs><style>.cls-1{fill:#fff;}</style></defs><path class="cls-1" d="M18.57,12A6.57,6.57,0,1,0,12,18.62,6.56,6.56,0,0,0,18.57,12Zm-10-3.78h1.55v0h0v0a.43.43,0,0,1,0,.05c0,.13,0,.26,0,.38v.39h0c0,.19,0,.38,0,.57a1.28,1.28,0,0,1,0,.19v0s0,0,0,.06H10l-.38,0-1.11,0c-.07,0-.1,0-.1-.1V8.32A.1.1,0,0,1,8.54,8.21Zm1.59,5h0v.17c0,.87,0,1.73,0,2.6v.1s0,0,0,0H9.27l-.21,0-.08,0L8.86,16l-.07,0a.18.18,0,0,0-.07,0,.9.9,0,0,1-.29-.68V10.44c0-.06,0-.09.09-.08l1.27.22h.08l.05,0h.13a.09.09,0,0,1,0,0,.18.18,0,0,1,0,.11V13.2Zm6.93-.9a4.06,4.06,0,0,1-.22,1.19.76.76,0,0,0,0,.11,3.87,3.87,0,0,1-1.57,1.88,2.63,2.63,0,0,1-.33.2l-.17.08-.35.14-.19,0-.09,0-.29.05h-.1a6.81,6.81,0,0,1-.78.05H11.21a.13.13,0,0,1-.08,0h0a.1.1,0,0,1,0-.08v-4.9c0-.09,0-.14,0-.15h0l.12,0a5.34,5.34,0,0,1,1.27.62l0,0,0,0c.25.2.31.25.32.43v.08a.86.86,0,0,1,0,.17v.49c0,.49,0,1,0,1.46,0,.09,0,.12.1.13h.17l.2,0h.07a2.18,2.18,0,0,0,1.39-.76l0,0a2,2,0,0,0,.49-1.1,1.27,1.27,0,0,0,0-.28,2.14,2.14,0,0,0-.2-1l0-.08L15.05,11a2.31,2.31,0,0,0-.45-.54,2.44,2.44,0,0,0-.79-.44l-.2,0h0l-.21,0H13a.07.07,0,0,0,0,0v.33a.08.08,0,0,0,0,0,0,0,0,0,1-.06,0h0l-.11,0-.1,0-.21-.05-.2,0-.19,0-.4-.07-.44-.06-.06,0s0,0,0,0,0,0,0,0c0-.55,0-1.1,0-1.65a.07.07,0,0,1,0-.05v0h0a.08.08,0,0,1,.07,0h2.1a3.15,3.15,0,0,1,.44,0,4.88,4.88,0,0,1,.55.12l.09,0,.17.06a3.27,3.27,0,0,1,.59.3,3.54,3.54,0,0,1,.49.34,3.85,3.85,0,0,1,1.21,1.69c0,.12.08.24.11.36a1.8,1.8,0,0,1,0,.19c0,.09,0,.19.05.28s0,.13,0,.19a1.34,1.34,0,0,0,0,.2v.09A1.34,1.34,0,0,1,17.06,12.3Z"/><path class="cls-1" d="M4,12.74V11.25c0-.13,0-.26.06-.39a7.38,7.38,0,0,1,.38-1.54A7.91,7.91,0,0,1,6.87,5.83a7.83,7.83,0,0,1,3.88-1.76L11.11,4H13a.32.32,0,0,0,.09,0l.95.18a7.51,7.51,0,0,1,1.76.67,8.19,8.19,0,0,1,2.35,1.87,7.94,7.94,0,0,1,1.18,1.81,7.66,7.66,0,0,1,.57,1.67A4.23,4.23,0,0,1,20,11.29c0,.43,0,.86,0,1.29a4.26,4.26,0,0,1-.07.87,9.24,9.24,0,0,1-.37,1.37,8.27,8.27,0,0,1-1.29,2.25,8.18,8.18,0,0,1-3,2.29,7.67,7.67,0,0,1-1.56.5,4.94,4.94,0,0,1-1.21.14c-.37,0-.73,0-1.1,0l-.48,0a7,7,0,0,1-1.57-.37,7.88,7.88,0,0,1-2.18-1.16,8.15,8.15,0,0,1-2.77-3.82,7.37,7.37,0,0,1-.34-1.46C4.05,13,4,12.88,4,12.74ZM19.18,12A7.16,7.16,0,1,0,12,19.17,7.16,7.16,0,0,0,19.18,12Z"/></svg>