<svg id="Layer_2" data-name="Layer 2" xmlns="http://www.w3.org/2000/svg" viewBox="0 0 24 24"><defs><style>.cls-1{fill:#fff;}</style></defs><path class="cls-1" d="M3.89,19.93V3.83H20v16.1Zm.8-.81h14.5V4.67H4.69Z"/><path class="cls-1" d="M15.11,15.12h-.89l-.06-.29a6.45,6.45,0,0,1-1.28.39,1.63,1.63,0,0,1-1.76-1.15,3,3,0,0,1,.13-2.41,1.82,1.82,0,0,1,2.5-.85l.31.13V8.55h1Zm-1-2.24h0c0-.27,0-.55,0-.82a.51.51,0,0,0-.1-.3,1.05,1.05,0,0,0-1.7.27,2.21,2.21,0,0,0,0,1.83.92.92,0,0,0,1.11.5.77.77,0,0,0,.71-.88Z"/><path class="cls-1" d="M9.82,15.12H8.75V9H9.82Z"/></svg>