<svg id="Layer_2" data-name="Layer 2" xmlns="http://www.w3.org/2000/svg" viewBox="0 0 24 24"><defs><style>.cls-1{fill:#fff;}</style></defs><path class="cls-1" d="M5.19,16.11a3.9,3.9,0,0,1,.16-1.93l-.06,0-.64.57a3.47,3.47,0,0,1,.37-2l0-.06-.68.51a3.13,3.13,0,0,1,.62-2l0-.06L4,11.81c0-.19,0-.35,0-.51A4.77,4.77,0,0,1,6,8.4,7.32,7.32,0,0,1,9.69,7.08,10.8,10.8,0,0,1,15,7.69a6.55,6.55,0,0,1,2.13,1.43,1.76,1.76,0,0,1,.52.94,1.08,1.08,0,0,1-.56,1.17A1,1,0,0,1,15.85,11a4.43,4.43,0,0,1-.46-.61,1.21,1.21,0,0,0-.71-.55,1.42,1.42,0,0,1-.58,1.94,1.34,1.34,0,0,1-1.55-.15,1.47,1.47,0,0,1-.33-1.86,11.72,11.72,0,0,0-1.14.38,10,10,0,0,0-3.49,2.56A15,15,0,0,0,5.3,15.92,1.6,1.6,0,0,1,5.19,16.11Z"/><path class="cls-1" d="M9.69,12a3.21,3.21,0,0,1,1.49-1.1,2.33,2.33,0,0,0,1.2,1.66,2.5,2.5,0,0,0,2.09.05c0,.21,0,.38-.05.54a4.87,4.87,0,0,1-2.56,3.57,2.68,2.68,0,0,1-2,.23,1.45,1.45,0,0,1-1.15-1.13,1.42,1.42,0,0,1,.61-1.54c.28-.2.62-.34.92-.52a7,7,0,0,0,.85-.57.65.65,0,0,0,.21-.73.72.72,0,0,0-.64-.49A7.34,7.34,0,0,0,9.69,12Z"/><path class="cls-1" d="M18.86,16l0,0a2.15,2.15,0,0,0-2.14-2.24,3,3,0,0,0-1.57.24l.14-.26A10.16,10.16,0,0,1,18,11.11a.59.59,0,0,1,.75,0,3.07,3.07,0,0,1,1.24,3A2.6,2.6,0,0,1,18.86,16Z"/><path class="cls-1" d="M17.27,16.17a1.43,1.43,0,0,1-1.56.1,1.49,1.49,0,0,1-.84-1.4l1.36.28C16.2,15.84,16.43,16.14,17.27,16.17Z"/></svg>