<svg id="Layer_2" data-name="Layer 2" xmlns="http://www.w3.org/2000/svg" viewBox="0 0 24 24"><defs><style>.cls-1{fill:#fff;}</style></defs><path class="cls-1" d="M11.55,20l-.65-.06-2.41-.32a.13.13,0,0,1-.09,0,.93.93,0,0,1-.13-.15c.06,0,.11-.1.16-.1.24,0,.48,0,.72,0,1.66.05,3.33.07,5,0a7.29,7.29,0,0,0,2.48-.53,8.68,8.68,0,0,0,.84-.48,1.29,1.29,0,0,1,.21,0c0,.08,0,.16,0,.22a1.54,1.54,0,0,1-.76.81,4.19,4.19,0,0,1-1.58.47L13.42,20l-.12,0Z"/><path class="cls-1" d="M14,5.5a2.25,2.25,0,0,1-.71,1.68c-.51.49-1.06,1-1.59,1.42l-.49.46a1,1,0,0,0-.3,1,7.75,7.75,0,0,0,.72,2.26c0,.07.07.13.08.19a.18.18,0,0,1,0,.16.15.15,0,0,1-.16,0A5,5,0,0,1,9.74,10.3,1.91,1.91,0,0,1,10,8.64,5.29,5.29,0,0,1,11.37,7.3l1.05-.76a2.16,2.16,0,0,0,.88-1.46c0-.29,0-.59,0-.88,0-.07.05-.13.07-.2s.15.06.18.11A2.65,2.65,0,0,1,14,5.5Z"/><path class="cls-1" d="M7.19,18c.33.08.66.16,1,.22a20.13,20.13,0,0,0,4.39.18,16.39,16.39,0,0,0,3.62-.52l.34-.12c.09,0,.14-.09.09-.21a.22.22,0,0,1,0-.16.22.22,0,0,1,.18,0,.44.44,0,0,1,0,.74,2.45,2.45,0,0,1-.57.32A9.84,9.84,0,0,1,14,19a26.83,26.83,0,0,1-4.57.15,11,11,0,0,1-2.55-.31,1.66,1.66,0,0,1-.69-.34.49.49,0,0,1,.12-.85,3.53,3.53,0,0,1,1.2-.3c.28,0,.57-.05.85-.07.1,0,.21,0,.22.11s-.1.14-.19.16l-1,.28a1.36,1.36,0,0,0-.21.1Z"/><path class="cls-1" d="M8.66,13.4c.21,0,.43.08.64.09a19,19,0,0,0,3.2,0c.71-.05,1.41-.14,2.12-.22a3.43,3.43,0,0,1,.34-.06.53.53,0,0,1,.2,0c0,.07,0,.17-.09.2a7.89,7.89,0,0,1-.92.46,9.11,9.11,0,0,1-3,.5,13.23,13.23,0,0,1-2.27-.09A3.45,3.45,0,0,1,7.57,14a.55.55,0,0,1-.31-.5A.49.49,0,0,1,7.6,13a6.75,6.75,0,0,1,1.05-.27c.39-.06.79-.06,1.18-.09.1,0,.22,0,.24.12s-.11.14-.2.17l-1,.32a1,1,0,0,0-.17.1Z"/><path class="cls-1" d="M12.47,13.17a.88.88,0,0,0,.06-.17c.06-.18.13-.37.17-.55a.68.68,0,0,0-.15-.64,3.52,3.52,0,0,1-.68-1.13,1.74,1.74,0,0,1,.61-2,8.66,8.66,0,0,1,2.33-1.32s.12,0,.19,0a.52.52,0,0,1-.07.2c-.44.38-.89.75-1.32,1.14a2.93,2.93,0,0,0-.46.54.82.82,0,0,0,0,1c.11.17.23.33.33.51a1.51,1.51,0,0,1-.18,2,5.44,5.44,0,0,1-.55.52.25.25,0,0,1-.17,0S12.5,13.21,12.47,13.17Z"/><path class="cls-1" d="M9.8,16.49c.27,0,.54.11.8.13a12.19,12.19,0,0,0,1.48,0c.44,0,.87-.13,1.31-.19a.39.39,0,0,1,.28.05,6.82,6.82,0,0,1,.68.41.25.25,0,0,1,.11.16c0,.05-.08.11-.13.13a6.52,6.52,0,0,1-1.84.45,8.09,8.09,0,0,1-2.73-.17,2.67,2.67,0,0,1-.63-.25.51.51,0,0,1-.29-.53.5.5,0,0,1,.38-.43,1.87,1.87,0,0,1,.41-.09C9.88,16.16,9.92,16.24,9.8,16.49Z"/><path class="cls-1" d="M9.24,14.94c.22,0,.44.1.66.12a10.56,10.56,0,0,0,2.45,0c.5-.07,1-.17,1.49-.25a.4.4,0,0,1,.24.05,4.8,4.8,0,0,1,.52.36.3.3,0,0,1,.11.17c0,.05-.1.11-.16.13-.69.13-1.39.28-2.1.37a14.4,14.4,0,0,1-1.86.1,4.56,4.56,0,0,1-1.71-.33,1.44,1.44,0,0,1-.39-.25.34.34,0,0,1,0-.52,1.75,1.75,0,0,1,.84-.36.14.14,0,0,1,.13.08.25.25,0,0,1-.05.16,1.56,1.56,0,0,1-.19.13Z"/><path class="cls-1" d="M16.47,12.43a1.22,1.22,0,0,1,1.31.91A1.38,1.38,0,0,1,17.2,15a4.76,4.76,0,0,1-1.87.82c-.05,0-.16,0-.16-.07a.21.21,0,0,1,.06-.18c.22-.18.47-.34.69-.54a7.53,7.53,0,0,0,.72-.77.65.65,0,0,0-.34-1.1,5.44,5.44,0,0,0-.7-.15c-.09,0-.22,0-.22-.12a.38.38,0,0,1,.17-.19A2.51,2.51,0,0,1,16.47,12.43Z"/></svg>