<svg id="Layer_2" data-name="Layer 2" xmlns="http://www.w3.org/2000/svg" viewBox="0 0 24 24"><defs><style>.cls-1{fill:#fff;}</style></defs><path class="cls-1" d="M19.52,15.48l-.1.08a6.41,6.41,0,0,1-4.82,2A8.74,8.74,0,0,1,7.17,14,7.24,7.24,0,0,1,5.83,7.05a1.64,1.64,0,0,0,0-.23s-.06,0-.07,0a.24.24,0,0,0-.08.06,6.08,6.08,0,0,0-1.6,5.4,9,9,0,0,0,7.52,7.23,8.41,8.41,0,0,0,4.91-.82A6.76,6.76,0,0,0,19.52,15.48ZM10,5.38l-.07,0a12.43,12.43,0,0,0-.7,1.08,5.22,5.22,0,0,0,.92,5.89,6.16,6.16,0,0,0,5.44,2.24A5.1,5.1,0,0,0,19.74,12a4.91,4.91,0,0,0,.22-.46l-.07,0c-.11.13-.23.26-.35.38a4.42,4.42,0,0,1-2.41,1.24,6.09,6.09,0,0,1-5-1.27A5.74,5.74,0,0,1,9.73,6.47,10.08,10.08,0,0,1,10,5.38ZM19.4,8.65A3.74,3.74,0,0,1,15,8.53a3.71,3.71,0,0,1-1.61-4.09,2.9,2.9,0,0,0-.51,3.17,3.89,3.89,0,0,0,3.34,2.54A3,3,0,0,0,19.4,8.65Z"/><path class="cls-1" d="M19.52,15.48a6.76,6.76,0,0,1-3,3.21,8.41,8.41,0,0,1-4.91.82A9,9,0,0,1,4.1,12.28a6.08,6.08,0,0,1,1.6-5.4.24.24,0,0,1,.08-.06s0,0,.07,0a1.64,1.64,0,0,1,0,.23,7.24,7.24,0,0,0,1.34,7,8.74,8.74,0,0,0,7.43,3.6,6.41,6.41,0,0,0,4.82-2Z"/><path class="cls-1" d="M10,5.38a10.08,10.08,0,0,0-.24,1.09,5.74,5.74,0,0,0,2.43,5.34,6.09,6.09,0,0,0,5,1.27,4.42,4.42,0,0,0,2.41-1.24c.12-.12.24-.25.35-.38l.07,0a4.91,4.91,0,0,1-.22.46,5.1,5.1,0,0,1-4.18,2.58,6.16,6.16,0,0,1-5.44-2.24A5.22,5.22,0,0,1,9.2,6.42a12.43,12.43,0,0,1,.7-1.08Z"/><path class="cls-1" d="M19.4,8.65a3,3,0,0,1-3.18,1.5,3.89,3.89,0,0,1-3.34-2.54,2.9,2.9,0,0,1,.51-3.17A3.71,3.71,0,0,0,15,8.53,3.74,3.74,0,0,0,19.4,8.65Z"/></svg>