<svg id="Layer_2" data-name="Layer 2" xmlns="http://www.w3.org/2000/svg" viewBox="0 0 24 24"><defs><style>.cls-1{fill:#fff;}.cls-2{fill:#b7c3c1;}.cls-3{fill:#dddddc;}</style></defs><path class="cls-1" d="M14,7.31c-4.1-3-6.72-2.4-7.78-2.7a10.69,10.69,0,0,1-1.32-.53,1.32,1.32,0,0,1,.34,1.09,11.8,11.8,0,0,0,2.72,9.41A10.66,10.66,0,0,0,17,18.27a1.21,1.21,0,0,0,.75-.91,10.18,10.18,0,0,0-3.8-10"/><path class="cls-2" d="M15.51,15.89A10.9,10.9,0,0,1,17,18.27s.94.81,1.89,1.71l.32-.28a24.88,24.88,0,0,1-1.45-2.36C17.18,17.5,16.27,16.73,15.51,15.89Z"/><path class="cls-3" d="M17.78,17.34h0c-.59.18-1.51-.62-2.27-1.45q-1.69-2.22-3.6-4.26c-.67-.71-6-6.78-6.93-7.5a9,9,0,0,0,1.21.48c1.06.3,3.68-.26,7.78,2.7A10.19,10.19,0,0,1,17.78,17.34Z"/></svg>