<svg id="Layer_2" data-name="Layer 2" xmlns="http://www.w3.org/2000/svg" viewBox="0 0 24 24"><defs><style>.cls-1{fill:#fff;}</style></defs><path class="cls-1" d="M12,20a1.33,1.33,0,0,1-.62-.16l-2-1.16c-.3-.16-.15-.22-.06-.25a3.6,3.6,0,0,0,.88-.4s.1,0,.15,0l1.5.9a.17.17,0,0,0,.17,0l5.87-3.39a.18.18,0,0,0,.09-.17V8.61a.16.16,0,0,0-.09-.16L12.07,5.07a.17.17,0,0,0-.17,0L6,8.45a.18.18,0,0,0-.09.16v6.77a.2.2,0,0,0,.09.17l1.6.92c.87.44,1.42-.07,1.42-.59V9.2A.18.18,0,0,1,9.22,9H10a.18.18,0,0,1,.18.18v6.68a1.63,1.63,0,0,1-1.74,1.84,2.52,2.52,0,0,1-1.35-.37l-1.54-.88A1.24,1.24,0,0,1,4.9,15.4V8.62a1.24,1.24,0,0,1,.62-1.07l5.86-3.4a1.36,1.36,0,0,1,1.24,0l5.86,3.4a1.24,1.24,0,0,1,.62,1.07V15.4a1.24,1.24,0,0,1-.62,1.07l-5.86,3.4A1.47,1.47,0,0,1,12,20Zm1.81-4.66c-2.57,0-3.1-1.18-3.1-2.18a.18.18,0,0,1,.17-.17h.77a.15.15,0,0,1,.16.15c.12.77.45,1.16,2,1.16,1.24,0,1.77-.28,1.77-.94,0-.39-.15-.67-2.08-.86-1.6-.16-2.6-.51-2.6-1.79s1-1.9,2.68-1.9c1.88,0,2.81.65,2.92,2.06a.2.2,0,0,1,0,.13.17.17,0,0,1-.12.06h-.76a.18.18,0,0,1-.17-.13c-.17-.81-.63-1.07-1.83-1.07-1.35,0-1.52.47-1.52.82s.19.56,2,.79,2.66.58,2.66,1.84-1.08,2-2.94,2Z"/></svg>