<svg id="Layer_2" data-name="Layer 2" xmlns="http://www.w3.org/2000/svg" viewBox="0 0 24 24"><defs><style>.cls-1{fill:#fff;}</style></defs><path class="cls-1" d="M20,4V20H4V4Zm-.82.82H4.79V19.19H19.18Z"/><path class="cls-1" d="M7.76,8.86c1,0,1.91,0,2.84.14a1.64,1.64,0,0,1,1.57,1.53,1.68,1.68,0,0,1-1.32,1.87,14.73,14.73,0,0,1-2,.32V15H7.76Zm1.1.94c0,.6,0,1.11,0,1.62,0,.09.14.25.2.25a8.87,8.87,0,0,0,1.45-.2c.41-.12.51-.5.47-.9a.68.68,0,0,0-.63-.65C9.89,9.85,9.41,9.84,8.86,9.8Z"/><path class="cls-1" d="M13,14.07c.51,0,.94.1,1.38.12a.88.88,0,0,0,.48-.12.58.58,0,0,0,.26-.38.45.45,0,0,0-.25-.34,6.61,6.61,0,0,0-.89-.29c-.74-.24-1-.57-1-1.25a1.23,1.23,0,0,1,1.09-1.27,8.81,8.81,0,0,1,1.77.1c.07,0,.18.16.2.26a4.26,4.26,0,0,1,0,.62c-.49-.06-.94-.12-1.38-.16-.29,0-.58.05-.62.39s.23.41.49.48l.81.24a1.07,1.07,0,0,1,.85,1,1.27,1.27,0,0,1-.62,1.31,3,3,0,0,1-2.43.15c-.08,0-.15-.16-.17-.25S13,14.26,13,14.07Z"/></svg>