<svg id="Layer_2" data-name="Layer 2" xmlns="http://www.w3.org/2000/svg" viewBox="0 0 24 24"><defs><style>.cls-1{fill:#fff;}</style></defs><path class="cls-1" d="M4,11.77c0-.21,0-.42.07-.63A7.79,7.79,0,0,1,5.86,6.9a7.62,7.62,0,0,1,4.52-2.72,7.79,7.79,0,0,1,7.46,2.36,7.51,7.51,0,0,1,2,4A8,8,0,0,1,14,19.72c-.51.13-1,.16-1.57.24l-.19,0h-.44l-.25,0c-.32,0-.65-.05-1-.11a7.86,7.86,0,0,1-4.72-2.78,7.78,7.78,0,0,1-1.78-4.22c0-.21-.05-.42-.07-.63Zm8,7.76a7.55,7.55,0,1,0-7.55-7.6A7.55,7.55,0,0,0,12,19.53Z"/><path class="cls-1" d="M12,4.9a7.09,7.09,0,1,0,7.1,7.1A7,7,0,0,0,12,4.9ZM11.3,12a1.78,1.78,0,0,1-.88.32c-.46,0-.93,0-1.39,0H8.85c-.12,0-.17.07-.16.2l0,1.33c0,.23.12.33.36.32s.21,0,.32,0c.27,0,.37.09.36.32a.33.33,0,0,1-.41.3A6,6,0,0,0,8,14.76c-.22,0-.45.05-.68.08s-.44,0-.47-.24a.31.31,0,0,1,.26-.38l.21,0c.39.08.59-.09.6-.49V12h0v-1.7a.64.64,0,0,0,0-.2.39.39,0,0,0-.51-.34l-.25,0a.26.26,0,0,1-.29-.27.27.27,0,0,1,.26-.32c.23,0,.47,0,.71,0H8.7c.15,0,.3,0,.46,0a7.24,7.24,0,0,1,1.54.05,1.46,1.46,0,0,1,1.2,1.45A1.46,1.46,0,0,1,11.3,12Zm5.64,2.79-.54,0c-.42,0-.85,0-1.28,0-.19,0-.3-.09-.3-.26s.15-.37.43-.33l.28,0,0,0-.94-1.11-1,1.13h.29c.1,0,.21,0,.31,0s.21.15.2.33a.24.24,0,0,1-.25.23h-1.9a.24.24,0,0,1-.25-.25c0-.25.12-.39.38-.34A.56.56,0,0,0,13,14c.31-.34.61-.7.92-1.05l.28-.32-.62-.75-.48-.56a.35.35,0,0,0-.44-.14l-.18,0c-.21,0-.32-.09-.32-.27s.09-.33.29-.33l.69,0h.6l.42,0a.3.3,0,1,1,0,.6,1.72,1.72,0,0,1-.32-.06l.8,1,.81-1v0l-.19,0a.32.32,0,0,1-.39-.26.3.3,0,0,1,.32-.34c.15,0,.31,0,.47,0l1.26,0c.22,0,.32.11.31.33a.24.24,0,0,1-.24.27s-.1,0-.13,0c-.34-.15-.56,0-.76.27s-.68.76-1,1.15l.6.72c.21.25.42.48.62.74a.48.48,0,0,0,.5.17H17c.18,0,.23.13.21.34A.25.25,0,0,1,16.94,14.82Z"/><path class="cls-1" d="M10.38,9.82A3.83,3.83,0,0,0,9,9.81c-.32.06-.34.1-.34.43v1.31c0,.16.08.26.24.26a5.37,5.37,0,0,0,1.55-.09.82.82,0,0,0,.54-.4A1,1,0,0,0,10.38,9.82Z"/></svg>