<svg id="Layer_2" data-name="Layer 2" xmlns="http://www.w3.org/2000/svg" viewBox="0 0 24 24"><defs><style>.cls-1{fill:#fff;}</style></defs><path class="cls-1" d="M20,19.72a9.1,9.1,0,0,0-2-1.21,3.61,3.61,0,0,1-1.47-1.21c-.3-.46-.3-.52.21-.68a6.09,6.09,0,0,1,1.13-.21c.27,0,.54,0,.85-.07a2.41,2.41,0,0,0-.24-.21l-1.12-.77a6.39,6.39,0,0,0-1.77-.74,1.06,1.06,0,0,1-.65-.54c-.45-1-1-1.91-1.36-2.9a9.33,9.33,0,0,0-3-3.9A6.16,6.16,0,0,0,8.09,6c-.29-.06-.59,0-.89-.09a1.37,1.37,0,0,1-.53-.21,5.66,5.66,0,0,0-1.58-.82.43.43,0,0,0-.55.66,7.61,7.61,0,0,0,.58.82,5.53,5.53,0,0,1,1,2A3.79,3.79,0,0,0,7,10.09a.52.52,0,0,1,.12.58c-.1.32-.22.63-.3.95a4.4,4.4,0,0,0,.24,3,1.56,1.56,0,0,0,.35.46c.11.1.25.11.27-.12s.11-.67.15-1A2.05,2.05,0,0,1,8.5,12.8a15.44,15.44,0,0,0,1.86,3.5,3.57,3.57,0,0,1-1.07-1c-.28-.39-.5-.83-.8-1.32-.06.35-.12.64-.16.93s-.09.67-.48.77A.79.79,0,0,1,7,15.28a3.79,3.79,0,0,1-.7-2.08,7.22,7.22,0,0,1,.4-2.56c0-.08,0-.22,0-.27A4.78,4.78,0,0,1,5.6,8.28,5.88,5.88,0,0,0,4.43,6.16,2.2,2.2,0,0,1,4,5.4a.87.87,0,0,1,1-1.11A3.81,3.81,0,0,1,6.68,5a1.9,1.9,0,0,0,1.1.43,5,5,0,0,1,2.63,1.06A10.55,10.55,0,0,1,13.69,10c.36.64.59,1.34.9,2s.56,1.18.86,1.76a.89.89,0,0,0,.4.37,10,10,0,0,1,3.34,2.2,1.07,1.07,0,0,0,.32.16v.08l-2.4.49a2,2,0,0,0,.31.39,8,8,0,0,0,.77.52,7.5,7.5,0,0,1,1.7,1.58A.69.69,0,0,1,20,19.72Z"/><path class="cls-1" d="M7.83,7.93l-.54-.85a.47.47,0,0,1,.63.2A.49.49,0,0,1,7.83,7.93Z"/></svg>