<svg id="Layer_2" data-name="Layer 2" xmlns="http://www.w3.org/2000/svg" viewBox="0 0 24 24"><defs><style>.cls-1{fill:#fff;}</style></defs><path class="cls-1" d="M20,8.43c0-.16,0-.32,0-.48a7.32,7.32,0,0,0-.09-1,3.56,3.56,0,0,0-.33-1A3.4,3.4,0,0,0,18.1,4.43a3.56,3.56,0,0,0-1-.33A7.32,7.32,0,0,0,16.05,4H7.69a5.16,5.16,0,0,0-.79.08,3.71,3.71,0,0,0-.76.22l-.24.11a3.3,3.3,0,0,0-.66.44l-.19.18a3.26,3.26,0,0,0-.62.85,3.56,3.56,0,0,0-.33,1A7.32,7.32,0,0,0,4,8c0,.16,0,.32,0,.48v7.14c0,.16,0,.32,0,.48A7.32,7.32,0,0,0,4.1,17.1a3.56,3.56,0,0,0,.33,1A3.4,3.4,0,0,0,5.9,19.57a3.56,3.56,0,0,0,1,.33A7.32,7.32,0,0,0,8,20h8.1a7.32,7.32,0,0,0,1.05-.09,3.56,3.56,0,0,0,1-.33,3.4,3.4,0,0,0,1.47-1.47,3.56,3.56,0,0,0,.33-1A7.32,7.32,0,0,0,20,16.05c0-.16,0-.32,0-.48V8.43ZM17.5,17a1.87,1.87,0,0,0-2.73-.69,1,1,0,0,0-.17.1h0a6,6,0,0,1-5.21,0,8.32,8.32,0,0,1-3.76-3.22,7.83,7.83,0,0,0,1.4.83,5.74,5.74,0,0,0,5.46,0,29.37,29.37,0,0,1-5-5.26,6.54,6.54,0,0,1-.67-.92,37.63,37.63,0,0,0,4.91,3.72A34.38,34.38,0,0,1,8.22,7.24,34.16,34.16,0,0,0,13.9,11.9l.24.15a3.39,3.39,0,0,0,.15-.45A6.37,6.37,0,0,0,13,6.27c2.74,1.65,4.36,4.78,3.7,7.42a1.33,1.33,0,0,0-.05.19h0C18.05,15.57,17.68,17.38,17.5,17Z"/></svg>