<svg id="Layer_2" data-name="Layer 2" xmlns="http://www.w3.org/2000/svg" viewBox="0 0 24 24"><defs><style>.cls-1{fill:#767576;}.cls-2{fill:#dbdbda;}.cls-3{fill:#cccbcb;}.cls-4{fill:#d7d7d7;}.cls-5{fill:#424243;}.cls-6{fill:#fcfcfb;}.cls-7{fill:#dddddc;}.cls-8{fill:#888;}.cls-9{fill:#f2efed;}.cls-10{fill:#595125;}.cls-11{fill:#f3d998;}.cls-12{fill:#a4cc3a;}.cls-13{fill:#46301e;}.cls-14{fill:#efefef;}.cls-15{fill:#333;}.cls-16{fill:#f7bf95;}.cls-17{fill:#fff;}.cls-18{fill:#e6bc49;}</style></defs><path class="cls-1" d="M13,13.8l-.31.09-.13,0a.31.31,0,0,0-.17.38L12,14h0l0,0h0l-.1-.18,0,0-.45-.39-.09-.05-.77-.24,0,0h0l0-.08,0,.06-.24-.07h-.09l-.58.22-.05,0c0-.08,0-.15,0-.23-.05-.24-.1-.48-.14-.73a.09.09,0,0,1,0-.07c.18-.8.37-1.59.55-2.38l.05-.05.31-.14h0l.3.16-.15.35h0l.24-.2a1.75,1.75,0,0,1,.29-.18L11,9.77a.47.47,0,0,1,.33-.06l.9.07a1.18,1.18,0,0,0,.25,0l.23-.05a.1.1,0,0,1,.09,0l1,.93,0,0h0c-.07-.17-.14-.34-.2-.51s-.09-.21-.13-.32h.12l.33.05s0,0,0,0c.12.56.24,1.12.37,1.67l.15.7v.07l-.36,1.27s0,0-.06,0h-.3v0l-.37-.54v0s0,0,0,.05-.17.25-.25.37Zm.88-2.65,0,0-.46.69a0,0,0,0,0,0,.07l.43.43s0,0,.08,0l.42-.43s0,0,0-.08l-.43-.65Zm-2.9.69-.5.74.5.51.48-.48a0,0,0,0,0,0,0l-.24-.36Zm-1.06-.56,0,0L9.41,12a0,0,0,0,0,0,.07c.15.14.29.28.43.43s.05,0,.08,0l.43-.43a.05.05,0,0,0,0-.08c-.09-.12-.17-.25-.25-.37Zm2.57,1.2L13,13h0l.47-.46s0,0,0-.07l-.37-.54a1.63,1.63,0,0,0-.11-.17ZM10.7,10.29c-.16.23-.3.45-.45.66a.06.06,0,0,0,0,.06l.4.39s0,0,.07,0l.39-.39s0,0,0-.08l-.27-.39Zm2.45-.16h0l-.44.64s0,0,0,.05l.4.41a0,0,0,0,0,.07,0l.4-.4a0,0,0,0,0,0-.07l-.13-.2ZM12,12l.45-.45L12,10.86l-.46.68Zm-.06,1.52h0l.41-.42s0,0,0-.07l-.26-.39a2.94,2.94,0,0,1-.17-.26l0,0-.42.62a0,0,0,0,0,0,.05Zm.39-3.2L12,9.81l-.33.49s0,0,0,0l.31.32Z"/><path class="cls-1" d="M14.94,12.56a0,0,0,0,1,0,0,.74.74,0,0,0,0-.39c-.06-.23-.1-.46-.15-.69a.07.07,0,0,1,0,0h.06a4.47,4.47,0,0,1,2.1.42l.39.21s0,0,0,.07-.07.32-.11.48h0l0,0,.45-.15a.1.1,0,0,1,.1,0,3.69,3.69,0,0,1,.95,1.66A4.82,4.82,0,0,1,19,15.62a.13.13,0,0,1,0,.06l-3.18-.51a1.86,1.86,0,0,1,.1-.25l.21-.52,0-.05a.26.26,0,0,0-.07-.35.87.87,0,0,0-.34-.15,4.54,4.54,0,0,0-.9-.13h-.11l.12-.62s.05,0,.06-.05a4.35,4.35,0,0,1,.75-.61c.24-.15.49-.28.73-.42l.05,0h0l-.28.07a3.88,3.88,0,0,0-1,.4Zm3,.88-.68.39,1,.49h0Zm.74,1.24-.78-.09.57.95Zm-2.06-2,.13.8.63-.51Zm-1.26.8.67.39V13Zm1.32,1.09.48.37.08-.6Z"/><path class="cls-2" d="M13,14.7,12.8,15a.14.14,0,0,0,0,.15l.15.45a.09.09,0,0,0,0,0l-.28,0-1.05.13-.24,0-.4.12-1.21.39a.1.1,0,0,1-.09,0l-1.13-.78a.08.08,0,0,1,0-.08l-.06-1a.2.2,0,0,1,.05-.18l.44-.52.08,0,1.06-.41h.1l1,.3.1.06,1,.88a.11.11,0,0,0,.07,0l.6.1ZM11.89,15h0v0l-.72-1.08s0,0-.06,0l-.94-.34a.14.14,0,0,0-.11,0l-.9.38A.33.33,0,0,0,9,14l-.33.48-.1.14h0l1.44-.31a.22.22,0,0,1,.16,0l1.46.58Zm-2.79.15v0l1.12.47h.07l1.06-.41,0,0h0l-.92.16a.71.71,0,0,1-.25,0c-.33-.06-.65-.14-1-.21Z"/><path class="cls-3" d="M13.68,8.79c-.12.18-.24.37-.37.55l-.1.17-.67-.44.85-.37.13,0v0l-.16.06-.65.21L12.43,9h-.06l-.83-.33,0,0,.24,0,1.11-.11,1-.1a.09.09,0,0,1,.09,0L15.47,10l0,0h0L15.23,10l-.9-.28s-.05,0-.06-.07L14,9s0,0,0-.05h0l.2.74-.85-.14.09-.19c.09-.17.18-.33.26-.5l0,0v0Z"/><path class="cls-3" d="M5,14.48l.13-.32-.45-.24L5,13.85l.42-.08a.08.08,0,0,1,.08,0l.47.37a.06.06,0,0,0,.08,0l.2-.15s0,0,.07,0l.29.21,0-.31.55.19,0-.32.34.1.2.06a.11.11,0,0,0,.08,0l.31-.18a.07.07,0,0,1,.09,0l.3.19-.09.1-.09.11c-.13.15-.13.15-.1.34s0,.12-.1.17l-.19.08-.18-.32-.1.11a2.39,2.39,0,0,0-.22.23s0,0-.08,0l-.7-.25H6.53l-.27.13a0,0,0,0,1-.07,0L6,14.55l-.15.23-.26-.19a.35.35,0,0,0-.17-.06l-.42,0Z"/><path class="cls-4" d="M15.74,14l-.24.14.33.18-.25.07a5.89,5.89,0,0,1-1.18.11.09.09,0,0,1-.05,0l-.06-.13-.29.07a1.71,1.71,0,0,1-.84,0l-.46-.11a.33.33,0,0,1-.13-.07c-.06,0-.07-.11,0-.15a.61.61,0,0,1,.18-.09,3.89,3.89,0,0,1,.68-.13,8.43,8.43,0,0,1,1.42,0,4.64,4.64,0,0,1,.82.12Z"/><path class="cls-1" d="M5,14.7l.38.05.06,0,.39.27.06,0,.15-.25.14.07h.07l.29-.14h.07l.76.27s.06,0,.08,0l.21-.23L7.8,15l.41-.18,0,.58H8.06l-1.56,0-1,0a.07.07,0,0,1-.06,0L5,14.73S5,14.72,5,14.7Z"/><path class="cls-5" d="M11.24,8.43l-.52.05a1.21,1.21,0,0,0-.05-.18.08.08,0,0,1,0,0A.67.67,0,0,0,10.88,8l0,0-.17.13a.09.09,0,0,1-.07,0L9.09,7.72a.27.27,0,0,1-.19-.27.26.26,0,0,1,.22-.23h.12l1.66.54a.32.32,0,0,1,.21.23C11.16,8.14,11.2,8.28,11.24,8.43Zm-1.87-1a.2.2,0,0,0-.19-.19.2.2,0,0,0-.2.19.19.19,0,0,0,.2.19A.18.18,0,0,0,9.37,7.46ZM10.88,8h0V8h0Z"/><path class="cls-3" d="M18.94,13.59c-.11-.21-.2-.42-.32-.63a3.38,3.38,0,0,0-.71-.85.06.06,0,0,0-.06,0l-.22.07c0-.07,0-.14.05-.2s0-.05,0-.07a4.38,4.38,0,0,0-1.5-.66h0l.17-.09c.05,0,.1-.08.15-.08s.1.06.15.09l.49.34a.37.37,0,0,0,.14,0l.74.08a.09.09,0,0,1,.08.05c.06.14.13.27.2.4s0,0,.07.06l.63.22s.06,0,0,.08c0,.34,0,.68,0,1v.15Z"/><path class="cls-6" d="M14.15,14.66c.07.15.13.29.2.43v0c-.09.27-.19.53-.29.81l-.15-.11a.11.11,0,0,1,0-.05c0-.12,0-.23-.07-.35l-.13.25-.35-.25a.12.12,0,0,0-.08,0l-.18,0a2,2,0,0,0-.09-.26.21.21,0,0,1,0-.25c.05,0,.07-.12.12-.14a.28.28,0,0,1,.18,0,2.25,2.25,0,0,0,.58-.08Z"/><path class="cls-7" d="M14.94,12.56l.21-.11a3.88,3.88,0,0,1,1-.4l.28-.07h0l-.05,0c-.24.14-.49.27-.73.42a4.35,4.35,0,0,0-.75.61s0,0-.06.05Z"/><path class="cls-3" d="M19.26,14.22l.39.22c0,.09-.08.19-.13.29a2.72,2.72,0,0,1-.11.25.17.17,0,0,0,0,.1l.09.23a.07.07,0,0,1,0,0c-.06.1-.13.19-.2.3a.33.33,0,0,1,0-.1,5.29,5.29,0,0,0-.16-1.37.43.43,0,0,1,0,0Z"/><path class="cls-5" d="M10.76,8.61l.58.23s0,0,0,0,.08.24.11.37a2.19,2.19,0,0,0-.5.09Z"/><path class="cls-7" d="M13,13.8l.18-.27c.08-.12.16-.25.25-.37s0,0,0-.05v0l.37.54v0Z"/><path class="cls-8" d="M19.26,14.22l-.14-.08-.18-.55v-.12l.53.21Z"/><path class="cls-8" d="M15.86,11.18l-.63-.07.14-.08.28-.14h0Z"/><path class="cls-7" d="M9.19,10.57l-.1.14-.17-.36.32,0Z"/><path class="cls-9" d="M12.33,9.24l-.52-.05L11.76,9l.57.23Z"/><path class="cls-7" d="M11.82,13.85l0,0L12,14Z"/><path class="cls-10" d="M13.36,8.69l.16-.06v0l-.13,0Z"/><path class="cls-7" d="M10.39,13.13l0-.06,0,.08Z"/><path class="cls-11" d="M12,14l0,0Z"/><path class="cls-11" d="M10.46,13.14h0Z"/><polygon class="cls-12" points="15.51 10.08 15.52 10.09 15.51 10.09 15.51 10.09 15.51 10.08"/><path class="cls-11" d="M12,14h0Z"/><path class="cls-7" d="M13.85,11.15l0,0,.43.65s0,.05,0,.08l-.42.43s-.05,0-.08,0l-.43-.43a0,0,0,0,1,0-.07l.46-.69Z"/><path class="cls-7" d="M11,11.84l.24.36.24.36a0,0,0,0,1,0,0l-.48.48-.5-.51Z"/><path class="cls-7" d="M9.89,11.28l.23.34c.08.12.16.25.25.37a.05.05,0,0,1,0,.08l-.43.43s0,0-.08,0-.28-.29-.43-.43a0,0,0,0,1,0-.07l.46-.69Z"/><path class="cls-7" d="M12.46,12.48l.5-.74a1.63,1.63,0,0,1,.11.17l.37.54s0,0,0,.07L13,13h0Z"/><path class="cls-7" d="M10.7,10.29l.16.25.27.39s0,.06,0,.08l-.39.39s0,0-.07,0l-.4-.39a.06.06,0,0,1,0-.06C10.4,10.74,10.54,10.52,10.7,10.29Z"/><path class="cls-7" d="M13.15,10.13l.3.44.13.2a0,0,0,0,1,0,.07l-.4.4a0,0,0,0,1-.07,0l-.4-.41s0,0,0-.05l.44-.64Z"/><path class="cls-7" d="M12,12l-.46-.45.46-.68.45.68Z"/><path class="cls-7" d="M11.89,13.51l-.44-.44a0,0,0,0,1,0-.05l.42-.62,0,0a2.94,2.94,0,0,0,.17.26l.26.39s0,.05,0,.07l-.41.42Z"/><path class="cls-7" d="M12.28,10.31l-.34.35-.31-.32s0,0,0,0L12,9.81Z"/><polygon class="cls-13" points="13.85 10.68 13.85 10.69 13.84 10.68 13.85 10.68"/><path class="cls-7" d="M17.94,13.44l.35.87h0l-1-.49Z"/><path class="cls-7" d="M18.68,14.68l-.21.86-.57-.95Z"/><path class="cls-7" d="M16.62,12.63l.76.29-.63.51Z"/><path class="cls-7" d="M15.36,13.43,16,13v.78Z"/><path class="cls-7" d="M16.68,14.52l.56-.23-.08.6Z"/><path class="cls-14" d="M11.89,15l-.21-.08-1.46-.58a.22.22,0,0,0-.16,0l-1.44.31h0l.1-.14L9,14a.33.33,0,0,1,.14-.12l.9-.38a.14.14,0,0,1,.11,0l.94.34s.05,0,.06,0L11.89,15v0Zm-.84-.6h0l-.76-.42s0,0-.07,0l-.57.22-.51.2h0l1-.21h.09l.37.11Z"/><path class="cls-15" d="M9.1,15.12l.1,0c.33.07.65.15,1,.21a.71.71,0,0,0,.25,0l.92-.16h0l0,0-1.06.41h-.07l-1.12-.47Z"/><polygon class="cls-16" points="11.89 14.97 11.9 14.97 11.9 14.97 11.89 14.97 11.89 14.97"/><path class="cls-17" d="M4,13.82l.26-.05.62-.12h0l0-.11a.06.06,0,0,1,0,0c0-.06,0-.09,0-.13L4.48,13l-.11-.15a.24.24,0,0,1,0-.2l.09-.83a.38.38,0,0,1,0-.1l.17.08a.14.14,0,0,1,0-.06,2.06,2.06,0,0,1,.68-.94.15.15,0,0,1,.13,0l.38,0-.19-.19.11-.06A5,5,0,0,1,7,10.14a9.83,9.83,0,0,1,2-.21h.35c0-.1.05-.2.06-.3s.05-.12.13-.13l.05,0a1.82,1.82,0,0,0,.54-.27.06.06,0,0,1,.08,0l.35.22.1.05,0-.14c-.08-.27-.16-.53-.23-.8a.09.09,0,0,0-.07-.06L9,8.05a.63.63,0,0,1-.44-.54.6.6,0,0,1,.76-.61l1.7.56a.62.62,0,0,1,.42.44l.12.42a.19.19,0,0,1,0,.07l.4,0,1.22-.12.65-.07.05,0,.3-.51,0,0a.43.43,0,0,0,0,0c-.06.18-.11.36-.17.55a.1.1,0,0,0,0,.11L15.38,9.6l1,1,0,0L14.47,10c0,.11,0,.22.07.32s.06.29.1.44a.08.08,0,0,0,0,.06l.21.11s0,0,.08,0l.78-.42.05,0,.25.47.25-.15c.05,0,.1-.08.15-.08a.6.6,0,0,1,.15.09l.56.39a.44.44,0,0,0,.16.06l.84.09a.07.07,0,0,1,.05,0l.23.44s0,.05.06.05l.74.27s0,0,0,.06c0,.34,0,.68-.05,1,0,0,0,0,0,.06l.51.21,0,0-.22.57.39.21-.12.3c-.06.13-.12.26-.17.39a.11.11,0,0,0,0,.08l.09.27a0,0,0,0,1,0,.05l-.43.62L19,16l-2.1-.34-1.2-.19a0,0,0,0,0-.06,0c-.08.22-.17.44-.26.65a.14.14,0,0,1-.09.08,1.36,1.36,0,0,1-.36.1,4.5,4.5,0,0,1-1.51,0c-.09,0-.18-.06-.27-.09a.16.16,0,0,1-.1-.11c0-.08-.06-.16-.09-.25l-.42.05-1.21.16a2.4,2.4,0,0,0-.38.12l-1.26.41-.05,0h0s0,0,0,0l-1.21-.83,0,0h-.8l-2.09-.05a.3.3,0,0,1-.26-.13l-.59-.81a.15.15,0,0,1,0-.06l.15-.42h0L4,13.85H4ZM12,14h0l.36.31a.31.31,0,0,1,.17-.38l.13,0L13,13.8l.85-.09h.3s.05,0,.06,0l.36-1.27v-.07l-.15-.7c-.13-.55-.25-1.11-.37-1.67,0,0,0,0,0,0l-.33-.05h-.12c0,.11.09.22.13.32s.13.34.2.51h0l0,0-1-.93a.1.1,0,0,0-.09,0l-.23.05a1.18,1.18,0,0,1-.25,0l-.9-.07a.47.47,0,0,0-.33.06l-.16.07a1.75,1.75,0,0,0-.29.18l-.24.2h0l.15-.35-.3-.16h0l-.31.14-.05.05c-.18.79-.37,1.58-.55,2.38a.09.09,0,0,0,0,.07c0,.25.09.49.14.73,0,.08,0,.15,0,.23l.05,0,.58-.22h.09l.24.07.07,0h0l0,0,.77.24.09.05.45.39L12,14h0l0,0ZM5,11.63l-.13.29.08,0,0-.33Zm14.13,2.51a.43.43,0,0,0,0,0,5.29,5.29,0,0,1,.16,1.37.33.33,0,0,0,0,.1c.07-.11.14-.2.2-.3a.07.07,0,0,0,0,0l-.09-.23a.17.17,0,0,1,0-.1,2.72,2.72,0,0,0,.11-.25c.05-.1.09-.2.13-.29l-.39-.22.22-.54L19,13.47v0c0-.34,0-.68,0-1,0,0,0-.06,0-.08l-.63-.22s0,0-.07-.06-.14-.26-.2-.4a.09.09,0,0,0-.08-.05l-.74-.08a.37.37,0,0,1-.14,0l-.49-.34c-.05,0-.1-.09-.15-.09s-.1,0-.15.08l-.17.09h0a4.38,4.38,0,0,1,1.5.66s0,0,0,.07,0,.13-.05.2l.22-.07a.06.06,0,0,1,.06,0,3.38,3.38,0,0,1,.71.85c.12.21.21.42.32.63ZM5.73,13.05l-.27,0,.06,0,1.06.37a.14.14,0,0,0,.11,0L8.53,13l.34-.09,0-.17a.14.14,0,0,0-.07-.13l-.47-.31,0,0-.47.4a.06.06,0,0,1-.06,0l-.49-.17a.08.08,0,0,0-.08,0l-.34.26a.06.06,0,0,1-.09,0l-.33-.23a0,0,0,0,0-.06,0L6,12.85Zm7.63-4.36h0l-.85.37.67.44.1-.17c.13-.18.25-.37.37-.55h0l0,0c-.08.17-.17.33-.26.5l-.09.19.85.14L14,8.94h0S14,9,14,9l.27.67s0,0,.06.07l.9.28.28.09h0l0,0-1.56-1.6a.09.09,0,0,0-.09,0l-1,.1-1.11.11-.24,0,0,0,.83.33h.06l.28-.09ZM9.19,10.57l.05-.2,0-.14a9.32,9.32,0,0,0-3.23.49l.25.33-.74,0h0a1.44,1.44,0,0,0-.42.43l.56.34,0-.47.83.47.32-.58a.1.1,0,0,1,0,0l.53.41a.1.1,0,0,0,.09,0l.35-.08c.09,0,.09,0,.1-.12s0-.23,0-.35l.54.32L8.92,11l.15.11Zm5.75,2-.1.53-.12.62h.11a4.54,4.54,0,0,1,.9.13.87.87,0,0,1,.34.15.26.26,0,0,1,.07.35l0,.05-.21.52a1.86,1.86,0,0,0-.1.25l3.18.51a.13.13,0,0,0,0-.06,4.82,4.82,0,0,0-.19-1.51,3.69,3.69,0,0,0-.95-1.66.1.1,0,0,0-.1,0l-.45.15,0,0h0c0-.16.07-.32.11-.48s0-.06,0-.07l-.39-.21a4.47,4.47,0,0,0-2.1-.42h-.06a.07.07,0,0,0,0,0c.05.23.09.46.15.69a.74.74,0,0,1,0,.39A0,0,0,0,0,14.94,12.56ZM13,14.7h-.05l-.6-.1a.11.11,0,0,1-.07,0l-1-.88-.1-.06-1-.3h-.1L9,13.73l-.08,0-.44.52a.2.2,0,0,0-.05.18l.06,1a.08.08,0,0,0,0,.08l1.13.78a.1.1,0,0,0,.09,0L11,15.92l.4-.12.24,0,1.05-.13.28,0a.09.09,0,0,1,0,0l-.15-.45a.14.14,0,0,1,0-.15ZM5.19,11.77l-.1.5L4.6,12c0,.17,0,.33,0,.49a.34.34,0,0,0,.11.35l.3.29.26-.24a.12.12,0,0,1,.08,0l.32-.05a.25.25,0,0,0,.09,0l.64-.45s.05,0,.08,0l.33.23s0,0,.07,0l.31-.24a.08.08,0,0,1,.08,0l.47.16a.07.07,0,0,0,.09,0l.47-.42a.06.06,0,0,1,.08,0l.43.28,0,0a.66.66,0,0,1,0-.15c.06-.27.13-.54.19-.81,0-.07,0-.08-.06-.11l-.39.44-.38-.23c0,.08,0,.14,0,.21s0,0,0,0l-.68.15a.06.06,0,0,1-.06,0l-.16-.12-.31-.25-.31.55-.72-.41,0,.49ZM5,14.48H5l.42,0a.35.35,0,0,1,.17.06l.26.19L6,14.55l.21.11a0,0,0,0,0,.07,0l.27-.13h.09l.7.25s.06,0,.08,0a2.39,2.39,0,0,1,.22-.23l.1-.11.18.32.19-.08c.11-.05.11-.05.1-.17s0-.19.1-.34L8.38,14l.09-.1-.3-.19a.07.07,0,0,0-.09,0l-.31.18a.11.11,0,0,1-.08,0l-.2-.06-.34-.1,0,.32-.55-.19,0,.31L6.32,14s0,0-.07,0l-.2.15a.06.06,0,0,1-.08,0l-.47-.37a.08.08,0,0,0-.08,0L5,13.85l-.36.07.45.24ZM15.74,14l-.07,0a4.64,4.64,0,0,0-.82-.12,8.43,8.43,0,0,0-1.42,0,3.89,3.89,0,0,0-.68.13.61.61,0,0,0-.18.09c-.07,0-.06.1,0,.15a.33.33,0,0,0,.13.07l.46.11a1.71,1.71,0,0,0,.84,0l.29-.07.06.13a.09.09,0,0,0,.05,0,5.89,5.89,0,0,0,1.18-.11l.25-.07-.33-.18ZM5,14.7s0,0,0,0l.45.61a.07.07,0,0,0,.06,0l1,0,1.56,0h.19l0-.58L7.8,15l-.13-.24L7.46,15s0,0-.08,0l-.76-.27H6.55l-.29.14H6.19l-.14-.07-.15.25-.06,0-.39-.27-.06,0Zm6.23-6.27c0-.15-.08-.29-.13-.43a.32.32,0,0,0-.21-.23L9.24,7.23H9.12a.26.26,0,0,0-.22.23.27.27,0,0,0,.19.27l1.51.49a.09.09,0,0,0,.07,0l.17-.13,0,0a.67.67,0,0,1-.19.22.08.08,0,0,0,0,0,1.21,1.21,0,0,1,.05.18Zm2.91,6.23-.24.06a2.25,2.25,0,0,1-.58.08.28.28,0,0,0-.18,0c-.05,0-.07.1-.12.14a.21.21,0,0,0,0,.25,2,2,0,0,1,.09.26l.18,0a.12.12,0,0,1,.08,0l.35.25.13-.25c0,.12,0,.23.07.35a.11.11,0,0,0,0,.05l.15.11c.1-.28.2-.54.29-.81v0C14.28,15,14.22,14.81,14.15,14.66ZM10.76,8.61l.21.72a2.19,2.19,0,0,1,.5-.09c0-.13-.07-.25-.11-.37s0,0,0,0Zm5.1,2.57-.16-.29h0l-.28.14-.14.08ZM12.33,9.24h0L11.76,9l.05.19Z"/><path class="cls-1" d="M9.19,10.57l-.12.55L8.92,11l-.41.45L8,11.14c0,.12,0,.23,0,.35s0,.1-.1.12l-.35.08a.1.1,0,0,1-.09,0l-.53-.41a.1.1,0,0,0,0,0l-.32.58-.83-.47,0,.47-.56-.34A1.44,1.44,0,0,1,5.51,11h0l.74,0-.25-.33a9.32,9.32,0,0,1,3.23-.49l0,.14-.32,0,.17.36Zm-.39,0-.41.09c-.05,0-.05,0,0,.07s.09.28.14.42l0,0ZM8,10.39l-.45.22.42.28Zm-1,.2H7l-.42.22.41.27Zm.43.45-.12.43.46-.28Zm-1.21.14.09.36.27-.26Z"/><path class="cls-3" d="M5.19,11.77l.65.4,0-.49.72.41.31-.55.31.25.16.12a.06.06,0,0,0,.06,0l.68-.15s0,0,0,0,0-.13,0-.21l.38.23.39-.44c.08,0,.08,0,.06.11-.06.27-.13.54-.19.81a.66.66,0,0,0,0,.15l0,0-.43-.28a.06.06,0,0,0-.08,0l-.47.42a.07.07,0,0,1-.09,0l-.47-.16a.08.08,0,0,0-.08,0l-.31.24s0,0-.07,0l-.33-.23s0,0-.08,0l-.64.45a.25.25,0,0,1-.09,0l-.32.05a.12.12,0,0,0-.08,0L5,13.17l-.3-.29a.34.34,0,0,1-.11-.35c0-.16,0-.32,0-.49l.49.23Z"/><path class="cls-15" d="M8.85,12.74l0,.17L8.53,13l-1.84.49a.14.14,0,0,1-.11,0l-1.06-.37-.06,0,.27,0,.33,0L6.74,13l.81-.08.69-.07Z"/><path class="cls-8" d="M8.85,12.74l-.61.06-.69.07L6.74,13,6.06,13l-.33,0,.28-.2.35-.25a0,0,0,0,1,.06,0l.33.23a.06.06,0,0,0,.09,0l.34-.26a.08.08,0,0,1,.08,0l.49.17a.06.06,0,0,0,.06,0l.47-.4,0,0,.47.31A.14.14,0,0,1,8.85,12.74Z"/><path class="cls-1" d="M5,11.63l0,.33-.08,0L5,11.63Z"/><polygon class="cls-18" points="4.99 11.63 4.99 11.63 4.99 11.63 4.99 11.63"/><path class="cls-7" d="M8.8,10.56l-.29.61,0,0c-.05-.14-.09-.28-.14-.42s0-.06,0-.07Z"/><path class="cls-7" d="M8,10.39l0,.5-.42-.28Z"/><path class="cls-7" d="M7,10.59l0,.48-.41-.27L7,10.58Z"/><path class="cls-7" d="M7.43,11l.34.15-.46.28Z"/><path class="cls-7" d="M6.22,11.18l.36.1-.27.26Z"/><path class="cls-13" d="M13.68,8.79h0v0Z"/><path class="cls-17" d="M9.37,7.46a.18.18,0,0,1-.19.19A.19.19,0,0,1,9,7.46a.2.2,0,0,1,.2-.19A.2.2,0,0,1,9.37,7.46Z"/><path class="cls-13" d="M10.88,8V8h0v0Z"/><path class="cls-15" d="M11.05,14.37l-.45-.12-.37-.11h-.09l-1,.21h0l.51-.2.57-.22s.05,0,.07,0l.76.42h0Z"/></svg>