<svg id="Layer_2" data-name="Layer 2" xmlns="http://www.w3.org/2000/svg" viewBox="0 0 24 24"><defs><style>.cls-1{fill:#fff;}</style></defs><path class="cls-1" d="M18.44,4H5.56A1.56,1.56,0,0,0,4,5.56V18.44A1.56,1.56,0,0,0,5.56,20H18.44A1.56,1.56,0,0,0,20,18.44V5.56A1.56,1.56,0,0,0,18.44,4Zm-5.16,8.87h-2v5.72H9.69V12.87h-2V11.59h5.59Zm5.16,4.7a1.51,1.51,0,0,1-.6.65,3,3,0,0,1-.87.35,5.29,5.29,0,0,1-1.06.1,5.63,5.63,0,0,1-1.1-.1,3.17,3.17,0,0,1-.9-.29v-1.5l-.06-.05h.06v.06a3.1,3.1,0,0,0,1.87.66,2.68,2.68,0,0,0,.54-.05,1.42,1.42,0,0,0,.37-.15.54.54,0,0,0,.22-.23.53.53,0,0,0,.07-.28.65.65,0,0,0-.11-.37,1.16,1.16,0,0,0-.32-.3,2.25,2.25,0,0,0-.47-.26c-.18-.09-.37-.17-.59-.26a3.22,3.22,0,0,1-1.22-.85,1.74,1.74,0,0,1-.4-1.18,1.81,1.81,0,0,1,.81-1.6,2.54,2.54,0,0,1,.87-.37,4.68,4.68,0,0,1,1.07-.12,5.46,5.46,0,0,1,1,.07,3.65,3.65,0,0,1,.79.2v1.47a2,2,0,0,0-.38-.22,3.81,3.81,0,0,0-.44-.15,3.29,3.29,0,0,0-.43-.09l-.41,0a1.93,1.93,0,0,0-.5.05,1.21,1.21,0,0,0-.38.14.81.81,0,0,0-.23.22.51.51,0,0,0-.08.29.59.59,0,0,0,.09.32,1.07,1.07,0,0,0,.26.26,3,3,0,0,0,.41.24l.56.25a6.53,6.53,0,0,1,.75.38,2.51,2.51,0,0,1,.57.43,1.44,1.44,0,0,1,.37.57,1.9,1.9,0,0,1,.13.75A2.5,2.5,0,0,1,18.44,17.57Z"/></svg>