<svg id="Layer_2" data-name="Layer 2" xmlns="http://www.w3.org/2000/svg" viewBox="0 0 24 24"><defs><style>.cls-1{fill:#fff;}</style></defs><path class="cls-1" d="M12,4a8,8,0,1,0,8,8A8,8,0,0,0,12,4Zm2.13,12.6-.83-.93c-.42.42-.82.85-1.25,1.26a.47.47,0,0,1-.3.12,5.08,5.08,0,0,1-3.85-2c.16,0,.27.06.39.07a.43.43,0,0,0,.54-.44c0-1.26,0-2.52,0-3.78a.55.55,0,0,0-.35-.54.61.61,0,0,0-.65.07,2.53,2.53,0,0,0-.65.93c-.08.17-.15.35-.25.59A5,5,0,0,1,11.08,7c-.21.25-.48.52-.71.83a1.32,1.32,0,0,0-.2,1c.05.38.25.5.67.41V9.5c0,1.49,0,3,0,4.48a.74.74,0,0,0,1,.72,6.25,6.25,0,0,0,.9-.51s.06-.12.06-.18V10.06a1.37,1.37,0,0,0-.43-.94L12.17,9a1.49,1.49,0,0,1,1,.23,5.16,5.16,0,0,1,3.06-1.73c-.22.24-.42.44-.6.66a3.39,3.39,0,0,0-.84,2.34c0,1.2,0,2.4,0,3.59a.3.3,0,0,0,.35.32,1.17,1.17,0,0,0,.56-.15,8.14,8.14,0,0,0,.87-.68c.1-.08.18-.19.29-.3A4.92,4.92,0,0,1,14.13,16.64Z"/></svg>