<svg id="Layer_2" data-name="Layer 2" xmlns="http://www.w3.org/2000/svg" viewBox="0 0 24 24"><defs><style>.cls-1{fill:#fff;}</style></defs><path class="cls-1" d="M15.86,5.84V5.72h1.32l.06-.1a3.35,3.35,0,0,0-.56-.45c-.57-.24-1.15-.44-1.73-.65a3.9,3.9,0,0,0-.59-.11c0,.5,0,.94,0,1.38,0,.06.09.18.14.18h1.76V5.93Zm-6.39.74A8.93,8.93,0,0,0,6.05,8.52a1.09,1.09,0,0,1,.06-.36c.58-1.31,1.16-2.62,1.76-3.91A.45.45,0,0,1,8.23,4c1.9,0,3.8,0,5.7,0a5.46,5.46,0,0,1,1.48.33,12.65,12.65,0,0,1,1.43.59,1,1,0,0,1,.7,1,11.31,11.31,0,0,1-1.35.3c-.47,0-.94,0-1.41,0-.14,0-.39.09-.4.15,0,.24-.14.53.17.71.72.43,1.43.87,2.14,1.31l.71.44c.6.36.65.66.21,1.26L17,9.48c-.22.16-.37.35-.47.33A.64.64,0,0,1,16,9.08a2.31,2.31,0,0,0-1.65-.19c0,.08,0,.17,0,.25v8.38a2,2,0,0,0,.9,2c.08,0,0,.31.05.47-.14,0-.34.08-.42,0a22,22,0,0,1-2.22-1.85A12.94,12.94,0,0,1,9,11.2,8.12,8.12,0,0,1,9.32,7Zm3.28,11.24.16-.05V12.06h.15l0,.43c0,1.75,0,3.5,0,5.25,0,.16,0,.38.09.47.45.44.93.84,1.4,1.25a8.73,8.73,0,0,1-.4-.91A8.31,8.31,0,0,1,14,17q0-6.09,0-12.19c0-.35,0-.49-.45-.49q-2.55,0-5.1,0A.46.46,0,0,0,8,4.61c-.41,1-.85,1.92-1.27,2.89a.81.81,0,0,0,0,.21c2-1.25,2.79-1.58,3.34-1.43a5.74,5.74,0,0,0-.78,3.61l1.25-1.51a.33.33,0,0,1-.06.27L9.33,10.17c-.07.1-.17.23-.16.33.11.69.24,1.36.36,2h.11l1.13-3.15.1,0c0,.1,0,.2-.07.3-.31,1-.63,2-.94,3.06a.6.6,0,0,0-.06.36c.21.55.46,1.08.69,1.62l.1,0,.73-4.26h.11c0,.14,0,.28,0,.41-.17,1.25-.29,2.5-.53,3.73-.17.86.4,1.3.84,1.85l.4-5h.13c0,.13,0,.26,0,.39-.09,1.6-.17,3.21-.25,4.82a.63.63,0,0,0,.08.39C12.29,17.32,12.53,17.57,12.75,17.82Zm4.83-8.25a11.33,11.33,0,0,0-3.21-2.14V8c0,.59,0,.61.59.59a2.34,2.34,0,0,1,1.49.38l-.1.46C16.78,9,17,9.05,17.58,9.57Z"/></svg>