<svg id="Layer_2" data-name="Layer 2" xmlns="http://www.w3.org/2000/svg" viewBox="0 0 24 24"><defs><style>.cls-1{fill:#fff;}</style></defs><path class="cls-1" d="M4,19.93V4H20V19.93ZM4.85,4.8V19.12H19.18V4.8Z"/><path class="cls-1" d="M15.56,11V8.67h1V15.2c-.31-.12-.77.28-.91-.31a3.76,3.76,0,0,1-.82.37,1.41,1.41,0,0,1-1.69-.93,3.29,3.29,0,0,1,0-2.45C13.5,10.73,14.32,10.44,15.56,11Zm0,2c0-.27,0-.54,0-.81a.63.63,0,0,0-.12-.33.83.83,0,0,0-1.38.24,2.35,2.35,0,0,0,0,1.89.79.79,0,0,0,1.52-.32Z"/><path class="cls-1" d="M7.45,15.19c.58-.93,1.1-1.78,1.65-2.62a.68.68,0,0,0,0-.9c-.55-.8-1-1.64-1.59-2.53a8,8,0,0,1,1,0,.55.55,0,0,1,.3.23c.38.61.75,1.23,1.14,1.88.36-.59.72-1.13,1-1.71a.66.66,0,0,1,.76-.42,4.25,4.25,0,0,0,.62,0,3.48,3.48,0,0,1-.19.35c-.46.76-.91,1.53-1.41,2.26a.6.6,0,0,0,0,.76c.57.86,1.1,1.74,1.71,2.69a8.65,8.65,0,0,1-1,0c-.1,0-.21-.16-.28-.27l-1.21-2c-.39.62-.79,1.19-1.11,1.8A.72.72,0,0,1,8,15.2,3.61,3.61,0,0,0,7.45,15.19Z"/></svg>